<?xml version="1.0" encoding="UTF-8" standalone="no"?>
<!-- Created with Inkscape (http://www.inkscape.org/) -->

<svg
   width="82mm"
   height="32mm"
   viewBox="0 0 82 32"
   version="1.1"
   id="svg5"
   inkscape:version="1.1 (c68e22c387, 2021-05-23)"
   sodipodi:docname="てｓｔ.svg"
   xmlns:inkscape="http://www.inkscape.org/namespaces/inkscape"
   xmlns:sodipodi="http://sodipodi.sourceforge.net/DTD/sodipodi-0.dtd"
   xmlns="http://www.w3.org/2000/svg"
   xmlns:svg="http://www.w3.org/2000/svg">
  <sodipodi:namedview
     id="namedview7"
     pagecolor="#ffffff"
     bordercolor="#666666"
     borderopacity="1.0"
     inkscape:pageshadow="2"
     inkscape:pageopacity="0.0"
     inkscape:pagecheckerboard="0"
     inkscape:document-units="mm"
     showgrid="false"
     inkscape:zoom="2"
     inkscape:cx="172.25"
     inkscape:cy="87.25"
     inkscape:window-width="1920"
     inkscape:window-height="1009"
     inkscape:window-x="-8"
     inkscape:window-y="-8"
     inkscape:window-maximized="1"
     inkscape:current-layer="layer1"
     width="209mm" />
  <defs
     id="defs2">
    <filter
       style="color-interpolation-filters:sRGB"
       inkscape:label="Drop Shadow"
       id="filter22829"
       x="-0.1710417"
       y="-0.17621361"
       width="1.967233"
       height="1.9820715">
      <feFlood
         flood-opacity="0.498039"
         flood-color="rgb(0,0,0)"
         result="flood"
         id="feFlood22819" />
      <feComposite
         in="flood"
         in2="SourceGraphic"
         operator="in"
         result="composite1"
         id="feComposite22821" />
      <feGaussianBlur
         in="composite1"
         stdDeviation="0.69280354"
         result="blur"
         id="feGaussianBlur22823" />
      <feOffset
         dx="6"
         dy="6"
         result="offset"
         id="feOffset22825" />
      <feComposite
         in="SourceGraphic"
         in2="offset"
         operator="over"
         result="composite2"
         id="feComposite22827" />
    </filter>
  </defs>
  <g
     inkscape:label="レイヤー 1"
     inkscape:groupmode="layer"
     id="layer1">
    <g
       aria-label="テスト"
       transform="scale(0.87721299,1.139974)"
       id="text10434"
       style="font-size:33.9931px;line-height:1.25;stroke-width:0.849829">
      <path
         d="M 14.305938,12.351866 H 1.0273834 V 9.4305843 H 28.24842 V 12.351866 H 17.360005 v 1.726212 q 0,8.36549 -5.975349,13.809697 L 8.728945,25.895992 q 5.576993,-4.381923 5.576993,-11.817914 z M 5.807663,4.2519481 V 1.3306662 H 23.46814 v 2.9212819 z"
         id="path11020" />
      <path
         d="m 50.821962,13.546936 q 5.709779,4.381923 11.286772,10.091702 l -2.655711,2.257354 Q 53.87603,20.053428 48.697394,16.069862 43.518757,21.646854 36.87948,26.028777 L 34.356555,23.771423 Q 48.431823,14.609221 52.415389,5.447018 L 37.941765,6.3765168 37.543408,3.1896638 52.946531,2.5257361 54.539958,2.1273794 56.664526,4.2519481 q 0.929499,0.9294988 -0.531142,1.1950699 -2.522925,4.381923 -5.311422,8.099918 z"
         id="path11022" />
      <path
         d="M 81.628209,9.6961554 Q 88.1347,11.555153 94.773977,14.742006 l -1.593426,3.054068 q -7.037634,-3.58521 -11.552342,-4.78028 V 26.825491 H 78.574141 V 0.26838182 h 2.655711 q 1.593426,0.13278554 0.398357,1.06228438 z"
         id="path11024" />
    </g>
  </g>
</svg>
