<svg version="1.1" xmlns="http://www.w3.org/2000/svg" xmlns:xlink="http://www.w3.org/1999/xlink" width="90.54047" height="28.35595" viewBox="0,0,90.54047,28.35595"><g transform="translate(-195.10476,-166.06265)"><g data-paper-data="{&quot;isPaintingLayer&quot;:true}" fill-rule="nonzero" stroke-linejoin="miter" stroke-miterlimit="10" stroke-dasharray="" stroke-dashoffset="0" style="mix-blend-mode: normal"><path d="M208.63234,181.59597c0,-5.96669 4.83695,-10.80365 10.80364,-10.80365c5.96669,0 10.80365,4.83696 10.80365,10.80365c0,5.96669 -4.83696,10.80364 -10.80365,10.80364c-5.96669,0 -10.80364,-4.83695 -10.80364,-10.80364z" fill="#002f71" stroke="none" stroke-width="0.5" stroke-linecap="butt"/><path d="M227.09762,191.24408c0,0 -18.73369,-8.37492 -18.27999,-8.41276c2.29872,-0.19173 8.90768,-0.11295 10.55974,-1.6339c1.76748,-1.62721 2.09255,-8.05984 1.956,-10.21164c-0.0333,-0.5248 5.86425,20.22973 5.86425,20.22973" fill="#006aff" stroke="#ffffff" stroke-width="0.5" stroke-linecap="round"/><path d="M195.10476,193.34836v-27.28571h40.85715v27.28571z" fill="none" stroke="none" stroke-width="none" stroke-linecap="butt"/><text transform="translate(231.15357,188.1686) scale(0.5,0.5)" font-size="40" xml:space="preserve" fill="#ffffff" fill-rule="nonzero" stroke="none" stroke-width="1" stroke-linecap="butt" stroke-linejoin="miter" stroke-miterlimit="10" stroke-dasharray="" stroke-dashoffset="0" font-family="Sans Serif" font-weight="normal" text-anchor="start" style="mix-blend-mode: normal"><tspan x="0" dy="0">Recto</tspan></text></g></g></svg>